<svg width="900" height="788" viewBox="0 0 900 788" fill="none" xmlns="http://www.w3.org/2000/svg">
<g clip-path="url(#clip0_1785_131389)">
<g clip-path="url(#clip1_1785_131389)">
<path d="M962 -11H0V852H962V-11Z" fill="url(#paint0_linear_1785_131389)"/>
<g opacity="0.6" clip-path="url(#clip2_1785_131389)">
<mask id="mask0_1785_131389" style="mask-type:luminance" maskUnits="userSpaceOnUse" x="-14" y="233" width="930" height="657">
<path d="M915.973 233.947H-13.8281V889.354H915.973V233.947Z" fill="white"/>
</mask>
<g mask="url(#mask0_1785_131389)">
<g opacity="0.5">
<path d="M1010.62 763.638H717.367V889.36H1010.62V763.638Z" fill="url(#paint1_linear_1785_131389)"/>
<path d="M1111.91 430.156L899.973 485.857V743.226L1111.91 687.524V430.156Z" fill="#005C34"/>
<path d="M1111.91 751.021V687.522L899.973 743.223V751.021H1111.91Z" fill="#005C34"/>
<path d="M521.445 559.741L616.407 588.268V646.262H521.445V559.741Z" fill="url(#paint2_linear_1785_131389)"/>
<path d="M521.515 559.744L238.582 613.772V863.467L521.515 809.427V559.744Z" fill="#005C34"/>
<path d="M289.638 624.574L253.41 631.504V626.669L289.638 619.751V624.574Z" fill="#092120"/>
<path d="M506.134 583.228L264.605 629.358V624.523L506.134 578.405V583.228Z" fill="#0B3F3E"/>
<path d="M289.638 636.406L253.41 643.336V638.501L289.638 631.583V636.406Z" fill="#092120"/>
<path d="M506.145 595.061L264.617 641.192V636.369L506.145 590.239V595.061Z" fill="#0B3F3E"/>
<path d="M289.638 648.256L253.41 655.186V650.351L289.638 643.433V648.256Z" fill="#092120"/>
<path d="M506.141 606.91L264.613 653.04V648.218L506.141 602.087V606.91Z" fill="#0B3F3E"/>
<path d="M289.638 660.091L253.41 667.021V662.187L289.638 655.269V660.091Z" fill="#092120"/>
<path d="M506.145 618.744L264.617 664.875V660.052L506.145 613.922V618.744Z" fill="#0B3F3E"/>
<path d="M289.638 671.925L253.41 678.855V674.02L289.638 667.102V671.925Z" fill="#092120"/>
<path d="M506.145 630.578L264.617 676.709V671.886L506.145 625.756V630.578Z" fill="#0B3F3E"/>
<path d="M289.638 683.785L253.41 690.703V685.881L289.638 678.95V683.785Z" fill="#092120"/>
<path d="M506.145 642.427L264.617 688.558V683.735L506.145 637.605V642.427Z" fill="#0B3F3E"/>
<path d="M289.638 695.621L253.41 702.539V697.716L289.638 690.786V695.621Z" fill="#092120"/>
<path d="M506.145 654.264L264.617 700.395V695.572L506.145 649.442V654.264Z" fill="#0B3F3E"/>
<path d="M289.638 707.468L253.41 714.386V709.563L289.638 702.633V707.468Z" fill="#092120"/>
<path d="M506.145 666.109L264.617 712.24V707.417L506.145 661.287V666.109Z" fill="#0B3F3E"/>
<path d="M289.638 719.302L253.41 726.22V721.397L289.638 714.467V719.302Z" fill="#092120"/>
<path d="M506.145 677.944L264.617 724.075V719.252L506.145 673.122V677.944Z" fill="#0B3F3E"/>
<path d="M289.638 731.145L253.41 738.063V733.24L289.638 726.31V731.145Z" fill="#092120"/>
<path d="M506.145 689.786L264.617 735.917V731.094L506.145 684.964V689.786Z" fill="#0B3F3E"/>
<path d="M289.638 742.981L253.41 749.899V745.077L289.638 738.146V742.981Z" fill="#092120"/>
<path d="M506.145 701.623L264.617 747.753V742.931L506.145 696.8V701.623Z" fill="#0B3F3E"/>
<path d="M289.638 754.815L253.41 761.733V756.91L289.638 749.98V754.815Z" fill="#092120"/>
<path d="M506.145 713.457L264.617 759.588V754.765L506.145 708.635V713.457Z" fill="#0B3F3E"/>
<path d="M289.638 766.662L253.41 773.579V768.757L289.638 761.827V766.662Z" fill="#092120"/>
<path d="M506.145 725.3L264.617 771.431V766.608L506.145 720.478V725.3Z" fill="#0B3F3E"/>
<path d="M289.638 778.511L253.41 785.429V780.607L289.638 773.677V778.511Z" fill="#092120"/>
<path d="M506.134 737.148L264.605 783.279V778.456L506.134 732.326V737.148Z" fill="#0B3F3E"/>
<path d="M289.638 790.342L253.41 797.26V792.437L289.638 785.507V790.342Z" fill="#092120"/>
<path d="M506.145 748.979L264.617 795.109V790.287L506.145 744.156V748.979Z" fill="#0B3F3E"/>
<path d="M506.145 760.817L264.617 806.948V802.125L506.145 755.995V760.817Z" fill="#0B3F3E"/>
<path d="M506.145 772.661L264.617 818.792V813.969L506.145 767.839V772.661Z" fill="#0B3F3E"/>
<path d="M506.145 784.496L264.617 830.627V825.804L506.145 779.674V784.496Z" fill="#0B3F3E"/>
<path d="M737.246 565.206L534.77 603.874V782.557L737.246 743.889V565.206Z" fill="#006F5A"/>
<path d="M667.728 794.349L604.688 806.387V782.051L667.728 770.013V794.349Z" fill="#092120"/>
<path d="M667.381 794.339L608.438 805.596V781.26L667.381 770.003V794.339Z" fill="url(#paint3_linear_1785_131389)"/>
<path d="M571.375 612.654L545.434 617.601V614.154L571.375 609.196V612.654Z" fill="#092120"/>
<path d="M726.305 583.059L553.449 616.061V612.614L726.305 579.6V583.059Z" fill="#0B3F3E"/>
<path d="M571.375 621.109L545.434 626.068V622.609L571.375 617.65V621.109Z" fill="#092120"/>
<path d="M726.305 591.52L553.449 624.534V621.075L726.305 588.074V591.52Z" fill="#0B3F3E"/>
<path d="M571.375 629.577L545.434 634.536V631.077L571.375 626.131V629.577Z" fill="#092120"/>
<path d="M726.305 599.996L553.449 632.998V629.552L726.305 596.538V599.996Z" fill="#0B3F3E"/>
<path d="M571.375 638.061L545.434 643.008V639.561L571.375 634.603V638.061Z" fill="#092120"/>
<path d="M726.305 608.467L553.449 641.481V638.022L726.305 605.008V608.467Z" fill="#0B3F3E"/>
<path d="M571.375 646.523L545.434 651.482V648.023L571.375 643.076V646.523Z" fill="#092120"/>
<path d="M726.305 616.929L553.449 649.944V646.485L726.305 613.483V616.929Z" fill="#0B3F3E"/>
<path d="M571.375 655.009L545.434 659.956V656.509L571.375 651.551V655.009Z" fill="#092120"/>
<path d="M726.305 625.415L553.449 658.429V654.97L726.305 621.956V625.415Z" fill="#0B3F3E"/>
<path d="M571.375 663.477L545.434 668.436V664.977L571.375 660.03V663.477Z" fill="#092120"/>
<path d="M726.305 633.882L553.449 666.897V663.438L726.305 630.436V633.882Z" fill="#0B3F3E"/>
<path d="M571.375 671.951L545.434 676.897V673.451L571.375 668.492V671.951Z" fill="#092120"/>
<path d="M726.305 642.357L553.449 675.359V671.912L726.305 638.898V642.357Z" fill="#0B3F3E"/>
<path d="M571.375 680.423L545.434 685.382V681.923L571.375 676.964V680.423Z" fill="#092120"/>
<path d="M726.305 650.832L553.449 683.846V680.387L726.305 647.385V650.832Z" fill="#0B3F3E"/>
<path d="M571.375 688.883L545.434 693.842V690.383L571.375 685.437V688.883Z" fill="#092120"/>
<path d="M726.305 659.304L553.449 692.306V688.859L726.305 655.845V659.304Z" fill="#0B3F3E"/>
<path d="M571.375 697.363L545.434 702.31V698.863L571.375 693.904V697.363Z" fill="#092120"/>
<path d="M726.305 667.769L553.449 700.784V697.325L726.305 664.311V667.769Z" fill="#0B3F3E"/>
<path d="M571.375 705.839L545.434 710.798V707.339L571.375 702.392V705.839Z" fill="#092120"/>
<path d="M726.305 676.244L553.449 709.258V705.8L726.305 672.798V676.244Z" fill="#0B3F3E"/>
<path d="M571.375 714.313L545.434 719.26V715.813L571.375 710.854V714.313Z" fill="#092120"/>
<path d="M726.305 684.719L553.449 717.733V714.274L726.305 681.26V684.719Z" fill="#0B3F3E"/>
<path d="M571.375 722.789L545.434 727.748V724.289L571.375 719.343V722.789Z" fill="#092120"/>
<path d="M726.305 693.194L553.449 726.208V722.749L726.305 689.747V693.194Z" fill="#0B3F3E"/>
<path d="M571.375 731.266L545.434 736.213V732.767L571.375 727.808V731.266Z" fill="#092120"/>
<path d="M726.305 701.671L553.449 734.673V731.227L726.305 698.212V701.671Z" fill="#0B3F3E"/>
<path d="M571.375 739.724L545.434 744.683V741.224L571.375 736.265V739.724Z" fill="#092120"/>
<path d="M726.305 710.132L553.449 743.147V739.688L726.305 706.686V710.132Z" fill="#0B3F3E"/>
<path d="M571.375 748.198L545.434 753.157V749.698L571.375 744.751V748.198Z" fill="#092120"/>
<path d="M726.305 718.618L553.449 751.62V748.173L726.305 715.159V718.618Z" fill="#0B3F3E"/>
<path d="M571.375 756.681L545.434 761.627V758.181L571.375 753.222V756.681Z" fill="#092120"/>
<path d="M726.305 727.085L553.449 760.099V756.64L726.305 723.626V727.085Z" fill="#0B3F3E"/>
<path d="M571.375 765.139L545.434 770.098V766.639L571.375 761.692V765.139Z" fill="#092120"/>
<path d="M726.305 735.544L553.449 768.558V765.099L726.305 732.097V735.544Z" fill="#0B3F3E"/>
<path d="M571.375 773.64L545.434 778.587V775.14L571.375 770.181V773.64Z" fill="#092120"/>
<path d="M726.305 744.037L553.449 777.038V773.592L726.305 740.578V744.037Z" fill="#0B3F3E"/>
<path d="M571.375 782.101L545.434 787.059V783.601L571.375 778.654V782.101Z" fill="#092120"/>
<path d="M726.305 752.501L553.449 785.515V782.056L726.305 749.055V752.501Z" fill="#0B3F3E"/>
<path d="M828.378 382.002L616.453 437.691V695.06L828.378 639.371V382.002Z" fill="#005C34"/>
<path d="M616.453 695.059V734.284L828.378 726.214V639.37L616.453 695.059Z" fill="#005C34"/>
<path d="M654.855 436.039L627.711 443.18V438.208L654.855 431.068V436.039Z" fill="#092120"/>
<path d="M817.107 393.416L636.18 440.973V435.989L817.107 388.445V393.416Z" fill="#0B3F3E"/>
<path d="M654.855 448.252L627.711 455.38V450.409L654.855 443.281V448.252Z" fill="#092120"/>
<path d="M817.111 405.63L636.184 453.174V448.202L817.111 400.659V405.63Z" fill="#0B3F3E"/>
<path d="M654.855 460.444L627.711 467.585V462.601L654.855 455.473V460.444Z" fill="#092120"/>
<path d="M817.111 417.824L636.184 465.368V460.397L817.111 412.853V417.824Z" fill="#0B3F3E"/>
<path d="M654.855 472.666L627.711 479.794V474.823L654.855 467.682V472.666Z" fill="#092120"/>
<path d="M817.111 430.044L636.184 477.588V472.616L817.111 425.06V430.044Z" fill="#0B3F3E"/>
<path d="M654.855 484.864L627.711 492.005V487.022L654.855 479.893V484.864Z" fill="#092120"/>
<path d="M817.111 442.243L636.184 489.787V484.815L817.111 437.271V442.243Z" fill="#0B3F3E"/>
<path d="M654.855 497.061L627.711 504.202V499.23L654.855 492.089V497.061Z" fill="#092120"/>
<path d="M817.111 454.442L636.184 501.998V497.014L817.111 449.47V454.442Z" fill="#0B3F3E"/>
<path d="M654.855 509.267L627.711 516.395V511.424L654.855 504.295V509.267Z" fill="#092120"/>
<path d="M817.111 466.646L636.184 514.19V509.218L817.111 461.675V466.646Z" fill="#0B3F3E"/>
<path d="M654.855 521.469L627.711 528.61V523.626L654.855 516.498V521.469Z" fill="#092120"/>
<path d="M817.111 478.849L636.184 526.405V521.421L817.111 473.878V478.849Z" fill="#0B3F3E"/>
<path d="M654.855 533.678L627.711 540.807V535.835L654.855 528.695V533.678Z" fill="#092120"/>
<path d="M817.111 491.058L636.184 538.602V533.63L817.111 486.074V491.058Z" fill="#0B3F3E"/>
<path d="M654.855 545.884L627.711 553.025V548.041L654.855 540.913V545.884Z" fill="#092120"/>
<path d="M817.111 503.264L636.184 550.807V545.836L817.111 498.292V503.264Z" fill="#0B3F3E"/>
<path d="M654.855 558.094L627.711 565.223V560.251L654.855 553.11V558.094Z" fill="#092120"/>
<path d="M817.123 515.461L636.195 563.017V558.033L817.123 510.49V515.461Z" fill="#0B3F3E"/>
<path d="M654.855 570.29L627.711 577.418V572.447L654.855 565.318V570.29Z" fill="#092120"/>
<path d="M817.111 527.667L636.184 575.211V570.24L817.111 522.696V527.667Z" fill="#0B3F3E"/>
<path d="M654.855 582.487L627.711 589.628V584.657L654.855 577.516V582.487Z" fill="#092120"/>
<path d="M817.111 539.865L636.184 587.421V582.437L817.111 534.894V539.865Z" fill="#0B3F3E"/>
<path d="M654.855 594.703L627.711 601.832V596.861L654.855 589.72V594.703Z" fill="#092120"/>
<path d="M817.111 552.083L636.184 599.626V594.655L817.111 547.099V552.083Z" fill="#0B3F3E"/>
<path d="M654.855 606.901L627.711 614.042V609.058L654.855 601.93V606.901Z" fill="#092120"/>
<path d="M817.123 564.28L636.195 611.824V606.852L817.123 559.309V564.28Z" fill="#0B3F3E"/>
<path d="M654.855 619.106L627.711 626.235V621.263L654.855 614.122V619.106Z" fill="#092120"/>
<path d="M817.123 576.484L636.195 624.028V619.056L817.123 571.5V576.484Z" fill="#0B3F3E"/>
<path d="M654.855 631.317L627.711 638.445V633.474L654.855 626.345V631.317Z" fill="#092120"/>
<path d="M817.123 588.69L636.195 636.234V631.263L817.123 583.719V588.69Z" fill="#0B3F3E"/>
<path d="M654.855 643.511L627.711 650.652V645.68L654.855 638.539V643.511Z" fill="#092120"/>
<path d="M817.123 600.888L636.195 648.445V643.461L817.123 595.917V600.888Z" fill="#0B3F3E"/>
<path d="M654.855 655.725L627.711 662.853V657.882L654.855 650.754V655.725Z" fill="#092120"/>
<path d="M817.111 613.099L636.184 660.643V655.672L817.111 608.116V613.099Z" fill="#0B3F3E"/>
<path d="M654.855 667.919L627.711 675.06V670.076L654.855 662.948V667.919Z" fill="#092120"/>
<path d="M817.111 625.3L636.184 672.844V667.873L817.111 620.329V625.3Z" fill="#0B3F3E"/>
<path d="M654.855 680.128L627.711 687.257V682.285L654.855 675.145V680.128Z" fill="#092120"/>
<path d="M817.111 637.508L636.184 685.052V680.081L817.111 632.524V637.508Z" fill="#0B3F3E"/>
<path d="M828.395 382L935.787 394.15V724.923H828.395V382Z" fill="url(#paint4_linear_1785_131389)"/>
<path d="M866.157 710.505C865.198 710.505 864.414 709.947 864.414 709.265V627.555C864.414 620.934 856.83 615.541 847.52 615.541H823.88C814.57 615.541 806.987 620.934 806.987 627.555C806.987 628.236 806.202 628.794 805.243 628.794C804.285 628.794 803.5 628.236 803.5 627.555C803.5 619.558 812.653 613.062 823.88 613.062H847.52C858.765 613.062 867.9 619.571 867.9 627.555V709.265C867.9 709.947 867.116 710.505 866.157 710.505Z" fill="#006F5A"/>
<path d="M810.102 627.081C810.102 629.2 807.696 630.911 804.715 630.911C801.734 630.911 799.328 629.2 799.328 627.081C799.328 624.961 801.734 623.25 804.715 623.25C807.696 623.25 810.102 624.961 810.102 627.081Z" fill="#B5EBE2"/>
<path d="M876.759 709.943C877.718 709.943 878.502 709.385 878.502 708.703V589.8C878.502 583.18 886.086 577.787 895.396 577.787H919.036C928.346 577.787 935.929 583.18 935.929 589.8C935.929 590.482 936.714 591.04 937.673 591.04C938.632 591.04 939.416 590.482 939.416 589.8C939.416 581.804 930.263 575.308 919.036 575.308H895.396C884.151 575.308 875.016 581.816 875.016 589.8V708.703C875.016 709.385 875.8 709.943 876.759 709.943Z" fill="#006F5A"/>
<path opacity="0.21" d="M799.25 627.08L759.117 711.593L844.281 706.956L810.024 627.08H799.25Z" fill="#B5EBE2"/>
<path opacity="0.21" d="M932.691 588.982L895.418 704.637L980.931 700.459L943.465 588.982H932.691Z" fill="#B5EBE2"/>
<path d="M725.973 769.208V889.351H843.999V765.96L725.973 769.208Z" fill="#101E1E"/>
<path d="M725.973 769.208V823.595L777.978 839.526V889.351H843.999V765.96L725.973 769.208Z" fill="url(#paint5_linear_1785_131389)"/>
<path d="M716.34 758.41L716.444 761.274L717.107 764.237L1129.69 748.827L1129.47 742.033L716.34 758.41Z" fill="url(#paint6_linear_1785_131389)"/>
<path d="M716.742 769.166L716.847 772.03L717.509 774.993L1130.12 759.583L1129.87 752.79L716.742 769.166Z" fill="#1F3C3D"/>
<path d="M716.93 775.295L717.034 778.159L717.714 781.122L1130.3 765.712L1130.06 758.918L716.93 775.295Z" fill="url(#paint7_linear_1785_131389)"/>
<path d="M716.742 763.404L716.847 766.268L717.527 769.231L1130.12 753.821L1129.87 747.028L716.742 763.404Z" fill="url(#paint8_linear_1785_131389)"/>
<path d="M727.719 712.829V718.978L728.259 725.35L1119.09 708.291V693.712L727.719 712.829Z" fill="url(#paint9_linear_1785_131389)"/>
<path d="M727.719 735.912V742.048L728.259 748.433L1119.09 731.374V716.795L727.719 735.912Z" fill="#005C34"/>
<path d="M727.719 747.034V755.204L728.259 761.588L1119.09 744.529V729.95L727.719 747.034Z" fill="url(#paint10_linear_1785_131389)"/>
<path d="M727.719 723.538V729.687L728.259 736.071L1119.09 719V704.421L727.719 723.538Z" fill="url(#paint11_linear_1785_131389)"/>
<path d="M270.421 629.23L288.675 625.474L333.514 627.358V617.254L385.083 605.365L528.336 614.304V629.23L573.647 625.474L655.672 632.701V654.211H263.762L270.421 629.23Z" fill="url(#paint12_linear_1785_131389)"/>
<path d="M231.456 661.059L224.43 889.369H392.98V633.797L231.456 661.059Z" fill="url(#paint13_linear_1785_131389)"/>
<path d="M736.496 655.481L393.121 633.798V889.369H736.496V655.481Z" fill="url(#paint14_linear_1785_131389)"/>
<g opacity="0.35">
<g style="mix-blend-mode:multiply">
<path d="M728.051 660.632L401.359 640.002V648.904L728.051 668.417V660.632Z" fill="#005738"/>
</g>
<g style="mix-blend-mode:multiply">
<path d="M728.051 676.675L401.359 656.059V664.948L728.051 684.473V676.675Z" fill="#005738"/>
</g>
<g style="mix-blend-mode:multiply">
<path d="M728.051 692.729L401.359 672.1V680.989L728.051 700.515V692.729Z" fill="#005738"/>
</g>
<g style="mix-blend-mode:multiply">
<path d="M728.051 708.769L401.359 688.153V697.041L728.051 716.567V708.769Z" fill="#005738"/>
</g>
<g style="mix-blend-mode:multiply">
<path d="M728.051 724.827L401.359 704.198V713.086L728.051 732.612V724.827Z" fill="#005738"/>
</g>
<g style="mix-blend-mode:multiply">
<path d="M728.051 740.864L401.359 720.247V729.136L728.051 748.662V740.864Z" fill="#005738"/>
</g>
<g style="mix-blend-mode:multiply">
<path d="M728.051 756.919L401.359 736.29V745.179L728.051 764.705V756.919Z" fill="#005738"/>
</g>
<g style="mix-blend-mode:multiply">
<path d="M728.051 772.961L401.359 752.332V761.233L728.051 780.759V772.961Z" fill="#005738"/>
</g>
<g style="mix-blend-mode:multiply">
<path d="M728.051 789.021L401.359 768.392V777.28L728.051 796.806V789.021Z" fill="#005738"/>
</g>
<g style="mix-blend-mode:multiply">
<path d="M728.051 805.058L401.359 784.428V793.33L728.051 812.843V805.058Z" fill="#005738"/>
</g>
</g>
<g style="mix-blend-mode:multiply">
<path d="M247.453 662.176L260.929 659.908V668.053L247.453 670.247V662.176Z" fill="#005738"/>
<path d="M275.188 657.685L288.664 655.404V663.562L275.188 665.756V657.685Z" fill="#005738"/>
<path d="M247.453 681.315L260.929 679.046V687.191L247.453 689.386V681.315Z" fill="#005738"/>
<path d="M275.145 676.825L288.621 674.543V682.701L275.145 684.895V676.825Z" fill="#005738"/>
<path d="M247.449 700.475L260.926 698.207V706.352L247.449 708.546V700.475Z" fill="#005738"/>
<path d="M275.141 695.977L288.617 693.696V701.854L275.141 704.048V695.977Z" fill="#005738"/>
<path d="M247.449 719.604L260.926 717.336V725.481L247.449 727.675V719.604Z" fill="#005738"/>
<path d="M275.141 715.108L288.617 712.827V720.985L275.141 723.179V715.108Z" fill="#005738"/>
<path d="M247.449 738.753L260.926 736.484V744.629L247.449 746.824V738.753Z" fill="#005738"/>
<path d="M275.141 734.259L288.617 731.978V740.135L275.141 742.329V734.259Z" fill="#005738"/>
<path d="M247.449 757.891L260.926 755.623V763.768L247.449 765.962V757.891Z" fill="#005738"/>
<path d="M275.141 753.4L288.617 751.119V759.276L275.141 761.47V753.4Z" fill="#005738"/>
<path d="M247.453 777.034L260.929 774.765V782.91L247.453 785.105V777.034Z" fill="#005738"/>
<path d="M275.145 772.547L288.621 770.278V778.423L275.145 780.617V772.547Z" fill="#005738"/>
</g>
<g style="mix-blend-mode:multiply">
<path d="M320.059 650.368L333.535 648.087V656.244L320.059 658.439V650.368Z" fill="#005738"/>
<path d="M347.75 645.884L361.226 643.603V651.76L347.75 653.942V645.884Z" fill="#005738"/>
<path d="M320.059 669.527L333.535 667.245V675.403L320.059 677.597V669.527Z" fill="#005738"/>
<path d="M347.75 665.031L361.226 662.75V670.907L347.75 673.089V665.031Z" fill="#005738"/>
<path d="M320.059 688.658L333.535 686.39V694.535L320.059 696.729V688.658Z" fill="#005738"/>
<path d="M347.75 684.17L361.226 681.889V690.046L347.75 692.241V684.17Z" fill="#005738"/>
<path d="M320.059 707.814L333.535 705.545V713.69L320.059 715.885V707.814Z" fill="#005738"/>
<path d="M347.75 703.319L361.226 701.038V709.195L347.75 711.39V703.319Z" fill="#005738"/>
<path d="M320.059 726.933L333.535 724.664V732.809L320.059 735.004V726.933Z" fill="#005738"/>
<path d="M347.75 722.447L361.226 720.166V728.324L347.75 730.518V722.447Z" fill="#005738"/>
<path d="M320.059 746.092L333.535 743.823V751.968L320.059 754.162V746.092Z" fill="#005738"/>
<path d="M347.75 741.596L361.226 739.314V747.472L347.75 749.666V741.596Z" fill="#005738"/>
<path d="M320.07 765.23L333.547 762.961V771.106L320.07 773.3V765.23Z" fill="#005738"/>
<path d="M347.773 760.743L361.25 758.462V766.62L347.773 768.814V760.743Z" fill="#005738"/>
<path d="M320.059 784.369L333.535 782.101V790.246L320.059 792.44V784.369Z" fill="#005738"/>
<path d="M347.75 779.886L361.226 777.605V785.763L347.75 787.957V779.886Z" fill="#005738"/>
</g>
<path d="M-2.55673 470.11L-5.39844 656.306H62.8024V447.882L-2.55673 470.11Z" fill="url(#paint15_linear_1785_131389)"/>
<path d="M201.463 465.559L62.5508 447.881V656.305H201.463V465.559Z" fill="url(#paint16_linear_1785_131389)"/>
<path d="M270.467 513.047L-3.60938 478.173V889.369H270.467V513.047Z" fill="url(#paint17_linear_1785_131389)"/>
<g opacity="0.35">
<g style="mix-blend-mode:multiply">
<path d="M263.855 521.331L3.09766 488.156V502.462L263.855 533.877V521.331Z" fill="#005738"/>
</g>
<g style="mix-blend-mode:multiply">
<path d="M263.855 547.155L3.09766 513.967V528.286L263.855 559.688V547.155Z" fill="#005738"/>
</g>
<g style="mix-blend-mode:multiply">
<path d="M263.855 572.979L3.09766 539.791V554.098L263.855 585.512V572.979Z" fill="#005738"/>
</g>
<g style="mix-blend-mode:multiply">
<path d="M263.855 598.799L3.09766 565.612V579.918L263.855 611.333V598.799Z" fill="#005738"/>
</g>
<g style="mix-blend-mode:multiply">
<path d="M263.855 624.614L3.09766 591.438V605.745L263.855 637.16V624.614Z" fill="#005738"/>
</g>
<g style="mix-blend-mode:multiply">
<path d="M263.855 650.434L3.09766 617.247V631.553L263.855 662.968V650.434Z" fill="#005738"/>
</g>
<g style="mix-blend-mode:multiply">
<path d="M263.855 676.262L3.09766 643.075V657.381L263.855 688.796V676.262Z" fill="#005738"/>
</g>
<g style="mix-blend-mode:multiply">
<path d="M263.855 702.077L3.09766 668.889V683.196L263.855 714.611V702.077Z" fill="#005738"/>
</g>
<g style="mix-blend-mode:multiply">
<path d="M263.855 727.896L3.09766 694.721V709.027L263.855 740.442V727.896Z" fill="#005738"/>
</g>
<g style="mix-blend-mode:multiply">
<path d="M263.855 753.72L3.09766 720.532V734.839L263.855 766.254V753.72Z" fill="#005738"/>
</g>
<g style="mix-blend-mode:multiply">
<path d="M263.855 779.542L3.09766 746.354V760.661L263.855 792.076V779.542Z" fill="#005738"/>
</g>
<g style="mix-blend-mode:multiply">
<path d="M263.855 805.355L3.09766 772.179V786.486L263.855 817.901V805.355Z" fill="#005738"/>
</g>
</g>
</g>
</g>
</g>
</g>
</g>
<defs>
<linearGradient id="paint0_linear_1785_131389" x1="481" y1="78.6484" x2="481" y2="768.738" gradientUnits="userSpaceOnUse">
<stop stop-color="#007E5F"/>
<stop offset="0.7" stop-color="#00B66A"/>
</linearGradient>
<linearGradient id="paint1_linear_1785_131389" x1="682.134" y1="687.593" x2="800.665" y2="866.618" gradientUnits="userSpaceOnUse">
<stop stop-color="#00634D"/>
<stop offset="1" stop-color="#00251E"/>
</linearGradient>
<linearGradient id="paint2_linear_1785_131389" x1="521.445" y1="602.996" x2="616.407" y2="602.996" gradientUnits="userSpaceOnUse">
<stop stop-color="#004238"/>
<stop offset="1" stop-color="#00634D"/>
</linearGradient>
<linearGradient id="paint3_linear_1785_131389" x1="876.063" y1="734.731" x2="881.21" y2="761.689" gradientUnits="userSpaceOnUse">
<stop stop-color="#94C9C0"/>
<stop offset="1" stop-color="#29B299"/>
</linearGradient>
<linearGradient id="paint4_linear_1785_131389" x1="828.395" y1="553.468" x2="935.787" y2="553.468" gradientUnits="userSpaceOnUse">
<stop stop-color="#004238"/>
<stop offset="1" stop-color="#00634D"/>
</linearGradient>
<linearGradient id="paint5_linear_1785_131389" x1="784.986" y1="821.996" x2="784.986" y2="759.687" gradientUnits="userSpaceOnUse">
<stop stop-color="#101E1E"/>
<stop offset="1" stop-color="#140A10"/>
</linearGradient>
<linearGradient id="paint6_linear_1785_131389" x1="928.112" y1="761.865" x2="926.887" y2="746.373" gradientUnits="userSpaceOnUse">
<stop stop-color="#1F3C3D"/>
<stop offset="0.99" stop-color="#005F39"/>
</linearGradient>
<linearGradient id="paint7_linear_1785_131389" x1="926.533" y1="765.353" x2="927.262" y2="777.046" gradientUnits="userSpaceOnUse">
<stop stop-color="#122324"/>
<stop offset="1" stop-color="#1A0C13"/>
</linearGradient>
<linearGradient id="paint8_linear_1785_131389" x1="926.734" y1="756.2" x2="926.916" y2="760.74" gradientUnits="userSpaceOnUse">
<stop stop-color="#0C0F25"/>
<stop offset="1"/>
</linearGradient>
<linearGradient id="paint9_linear_1785_131389" x1="924.755" y1="717.986" x2="923.852" y2="704.106" gradientUnits="userSpaceOnUse">
<stop stop-color="#005C34"/>
<stop offset="0.99" stop-color="#007544"/>
</linearGradient>
<linearGradient id="paint10_linear_1785_131389" x1="923.204" y1="740.748" x2="923.743" y2="752.166" gradientUnits="userSpaceOnUse">
<stop stop-color="#0D3B3D"/>
<stop offset="1" stop-color="#0B2829"/>
</linearGradient>
<linearGradient id="paint11_linear_1785_131389" x1="923.221" y1="713.198" x2="923.548" y2="726.595" gradientUnits="userSpaceOnUse">
<stop stop-color="#042A2C"/>
<stop offset="1" stop-color="#051416"/>
</linearGradient>
<linearGradient id="paint12_linear_1785_131389" x1="459.717" y1="616.101" x2="459.717" y2="688.08" gradientUnits="userSpaceOnUse">
<stop stop-color="#00251E"/>
<stop offset="1" stop-color="#00634D"/>
</linearGradient>
<linearGradient id="paint13_linear_1785_131389" x1="308.705" y1="679.63" x2="308.705" y2="803.517" gradientUnits="userSpaceOnUse">
<stop stop-color="#006650"/>
<stop offset="1" stop-color="#0E1E1F"/>
</linearGradient>
<linearGradient id="paint14_linear_1785_131389" x1="393.121" y1="761.589" x2="736.496" y2="761.589" gradientUnits="userSpaceOnUse">
<stop stop-color="#004238"/>
<stop offset="1" stop-color="#00634D"/>
</linearGradient>
<linearGradient id="paint15_linear_1785_131389" x1="28.702" y1="485.26" x2="28.702" y2="586.286" gradientUnits="userSpaceOnUse">
<stop stop-color="#006650"/>
<stop offset="1" stop-color="#0E1E1F"/>
</linearGradient>
<linearGradient id="paint16_linear_1785_131389" x1="62.5508" y1="552.093" x2="201.463" y2="552.093" gradientUnits="userSpaceOnUse">
<stop stop-color="#00251E"/>
<stop offset="1" stop-color="#00634D"/>
</linearGradient>
<linearGradient id="paint17_linear_1785_131389" x1="-3.60938" y1="683.771" x2="270.467" y2="683.771" gradientUnits="userSpaceOnUse">
<stop stop-color="#004238"/>
<stop offset="1" stop-color="#00634D"/>
</linearGradient>
<clipPath id="clip0_1785_131389">
<rect width="900" height="788" fill="white"/>
</clipPath>
<clipPath id="clip1_1785_131389">
<rect width="900" height="840" fill="white"/>
</clipPath>
<clipPath id="clip2_1785_131389">
<rect width="1225.4" height="672.183" fill="white" transform="translate(-161.293 195)"/>
</clipPath>
</defs>
</svg>
